<svg id="Layer_1" data-name="Layer 1" xmlns="http://www.w3.org/2000/svg" viewBox="0 0 206.58 33.94"><defs><style>.cls-1,.cls-2{fill:#d1dae1;}.cls-1{fill-rule:evenodd;}.cls-2{font-size:43px;font-family:Roboto-Light, Roboto;}.cls-3{letter-spacing:-0.04em;}.cls-4{letter-spacing:-0.04em;}.cls-5{letter-spacing:-0.02em;}.cls-6{letter-spacing:-0.02em;}.cls-7{letter-spacing:0em;}.cls-10,.cls-8,.cls-9{font-family:Roboto-Medium, Roboto;}.cls-8{letter-spacing:-0.01em;}.cls-9{letter-spacing:-0.01em;}</style></defs><title>Logo_final</title><path class="cls-1" d="M202.42,23.38a2.15,2.15,0,0,0-.87.22l-5.35-5,4.32-.17a2.18,2.18,0,1,0-.06-1.43l-4.22.16,5-5.41a2.06,2.06,0,0,0,1,.22A2.18,2.18,0,1,0,200,9.93a2.42,2.42,0,0,0,.22.86l-6,6.5h0l0,0a2.18,2.18,0,1,0,0,1.43l6.34,5.86a2.09,2.09,0,0,0-.22,1,2.18,2.18,0,1,0,2.09-2.26Z"/><path class="cls-1" d="M185.7,12.22a.88.88,0,0,0,.5,1L191.3,15a.72.72,0,0,0,.91-.58l1.84-7.13a.9.9,0,0,0-.49-1.06l-2-.71s-7.72-3.64-15.4-2.87a11.87,11.87,0,0,0-8.79,4.82,17.7,17.7,0,0,0-3,10.06,17.75,17.75,0,0,0,1.7,8.5,12.18,12.18,0,0,0,9.76,7c7.67,1,15.45-2.32,15.45-2.32l2-.65a.87.87,0,0,0,.52-1l-1.7-7a.73.73,0,0,0-.9-.61L186.11,23a.87.87,0,0,0-.53,1l.21.67a.69.69,0,0,1-.4.78c-2.54,1.06-7.52,2-11.32-.06s-3.49-7.09-3.49-7.7.16-5.59,3.64-7.4c3.94-2,8.78-.86,11.32.34a.69.69,0,0,1,.38.79ZM185.38,28a1.15,1.15,0,0,1,.82.91,1.17,1.17,0,0,1-1.37,1.44,1.21,1.21,0,0,1,.55-2.35Zm-5.21.27a1.15,1.15,0,0,1,.82.91,1.13,1.13,0,1,1-.82-.91Zm-4.89-.83a1.14,1.14,0,0,1,.83.91,1.17,1.17,0,0,1-1.37,1.43,1.14,1.14,0,0,1-.83-.91A1.17,1.17,0,0,1,175.28,27.47ZM167,14.53a14.57,14.57,0,0,1,4.32-7.26.66.66,0,0,1,.91.12.74.74,0,0,1-.11,1,13.25,13.25,0,0,0-3.86,6.52,13.08,13.08,0,0,0,2.94,11.66c.1.11.2.23.31.34a2,2,0,0,1,.48.65.65.65,0,0,1-.15.75.69.69,0,0,1-.67,0,1.81,1.81,0,0,1-.55-.44,14.5,14.5,0,0,1-3.81-12.54c.06-.26.13-.53.19-.79m8-6.41a1.13,1.13,0,0,1-.83-.91,1.13,1.13,0,1,1,.83.91ZM181.3,6.5a1.13,1.13,0,0,1-.85.89,1.17,1.17,0,0,1-1.33-1.47,1.13,1.13,0,1,1,2.18.58Zm3.84,1.3a1.16,1.16,0,0,1-.82-.92,1.16,1.16,0,0,1,1.37-1.43,1.15,1.15,0,0,1,.82.91A1.17,1.17,0,0,1,185.14,7.8Zm-17.39,6.7"/><text class="cls-2" transform="translate(-2.25 32.29)"><tspan class="cls-3">H</tspan><tspan class="cls-4" x="28.7" y="0">o</tspan><tspan class="cls-5" x="51.24" y="0">r</tspan><tspan class="cls-6" x="64.99" y="0">s</tspan><tspan class="cls-7" x="85.89" y="0">e</tspan><tspan class="cls-8" x="108.04" y="0">L</tspan><tspan class="cls-9" x="130.83" y="0">i</tspan><tspan class="cls-10" x="141.42" y="0">n</tspan></text></svg>